# xmcd
#
# Track frame offsets:
#	183
#	13000
#	23510
#	36363
#	48065
#	61530
#	76088
#	83300
#	94530
#	107230
#	115753
#	125998
#	139025
#	154480
#	167623
#	178665
#
# Disc length: 2560 seconds
#
# Revision: 2
# Processed by: cddbd v1.5.1PL2 Copyright (c) Steve Scherf et al.
# Submitted via: audiograbber 1.83.01
#
DISCID=b909fe10
DTITLE=Various Artist - Golden Country Greats
DYEAR=1988
DGENRE=Country
TTITLE0=Frankie Laine - High Noon
TTITLE1=Frankie Laine - I Believe
TTITLE2=Johnny Cash - Folsom Prison Blues
TTITLE3=Don Williams - Follow Me Back To Louisville
TTITLE4=Don Williams - Ruby Tuesday
TTITLE5=Billy Joe Spears - I'll Never Be Free
TTITLE6=Waylon Jennings - It's So Easy
TTITLE7=Johny Cash - Oh, Lonesome Me
TTITLE8=Oak Ridge Boys - You'll Never Walk Alone
TTITLE9=Jack Jones - My Fault
TTITLE10=Dolly Parton - Release Me
TTITLE11=Willie Nelson - Any Old Arms Won´t Do
TTITLE12=Kenny Rogers - For The Good Times
TTITLE13=Freddy Fender - Since I Met You Baby
TTITLE14=Ferlein Huskey - Gone
TTITLE15=Alabama - Patches
EXTD=
EXTT0=
EXTT1=
EXTT2=
EXTT3=
EXTT4=
EXTT5=
EXTT6=
EXTT7=
EXTT8=
EXTT9=
EXTT10=
EXTT11=
EXTT12=
EXTT13=
EXTT14=
EXTT15=
PLAYORDER=
